<svg xmlns="http://www.w3.org/2000/svg" width="38.885" height="45.463" viewBox="0 0 38.885 45.463">
  <g id="Group_89" data-name="Group 89" transform="translate(-34.657 -12.049)">
    <path id="Path_7" data-name="Path 7" d="M554.826,261.553a8.553,8.553,0,0,1,3.923.731,10.77,10.77,0,0,0,8.85.071c4.732-1.886,8.921-.675,12.491,2.9.708.71.708,1.105-.162,1.719a9.649,9.649,0,0,0,.905,16.472c1.232.677,1.235,1.225.675,2.3-1.8,3.469-3.7,6.846-6.83,9.33a5.54,5.54,0,0,1-6.232.771,10.964,10.964,0,0,0-10.007-.064c-2.952,1.355-5.6.7-7.912-1.886a27.712,27.712,0,0,1-7.54-18.269c-.127-5.623,1.964-10.2,7.145-12.98A8.666,8.666,0,0,1,554.826,261.553Z" transform="translate(-508.324 -238.968)" fill="#fff"/>
    <path id="Path_8" data-name="Path 8" d="M550.935,266.449c.115-4.212,4.205-8.758,8.41-9.391.849-.127,1.209.106,1.258,1.014.252,4.548-3.751,9.44-8.264,10.042C551.147,268.274,550.9,267.973,550.935,266.449Z" transform="translate(-497.578 -244.977)" fill="#fff"/>
  </g>
</svg>
