<svg xmlns="http://www.w3.org/2000/svg" width="225" height="225" viewBox="0 0 225 225">
  <g id="Group_21" data-name="Group 21" transform="translate(-0.272 0.225)">
    <g id="Ellipse_4" data-name="Ellipse 4" transform="translate(0.272 -0.225)" fill="none" stroke="#fff" stroke-width="10">
      <circle cx="112.5" cy="112.5" r="112.5" stroke="none"/>
      <circle cx="112.5" cy="112.5" r="107.5" fill="none"/>
    </g>
    <path id="Path_31" data-name="Path 31" d="M-1398.849,447.966c-1.258-2.524-3.45-3.331-6.121-3.316-5.04.029-10.08.012-15.12,0-4.148-.008-4.167-.015-4.171-4.074-.012-12.342.04-24.685-.035-37.027-.033-5.5-2-7.425-7.5-7.494-6.479-.08-12.959-.019-19.439-.022-6.275,0-12.549-.024-18.823,0-6.431.027-8.1,1.69-8.106,8-.006,12.342-.087,24.686.06,37.027.034,2.9-.924,3.763-3.715,3.639-4.311-.191-8.638-.013-12.957-.061-2.747-.03-5.194.515-6.4,3.29-1.164,2.667-.218,4.923,1.5,7.108q21.542,27.413,43.006,54.886c3.522,4.495,7,4.582,10.608.217q22.9-27.7,45.774-55.426C-1398.6,452.681-1397.544,450.584-1398.849,447.966Zm-54.726,32.231-6.024-4.165.149-23.135h-5.668v-6.414h5.668v-6.937q0-2.983-1.268-2.984-.9,0-2.834,1.716l-3.133-5q3.43-4.1,6.265-4.1,8.28,0,8.28,11.189a56.84,56.84,0,0,1-.224,6.116h5.3V452.6h-5.3V472.29q12.157-3.877,12.158-9.622,0-2.462-2.014-2.462-.746,0-3.505,2.462l-3.655-4.849q2.014-4.923,7.682-4.923a7.572,7.572,0,0,1,6.042,2.827,9.845,9.845,0,0,1,2.387,6.545Q-1433.269,474.545-1453.575,480.2Z" transform="translate(1562.813 -339.316)" fill="#fff"/>
  </g>
</svg>
