<svg xmlns="http://www.w3.org/2000/svg" width="225" height="225" viewBox="0 0 225 225">
  <g id="Group_22" data-name="Group 22" transform="translate(0 0.225)">
    <g id="Group_19" data-name="Group 19" transform="translate(27.822 51.421)">
      <g id="R7cC0h" transform="translate(51.025 6.389)">
        <g id="Group_17" data-name="Group 17" transform="translate(0 0)">
          <path id="Path_19" data-name="Path 19" d="M-415.846,510.765a20.7,20.7,0,0,1-4.5,10.022c-5.606,6.445-12.66,8.921-20.911,6.71-8.142-2.182-13.267-7.713-14.718-16.026-1.474-8.442,1.578-15.315,8.569-20.329.888-.637,1.137-1.191.7-2.163a12.942,12.942,0,0,1-.744-2.165c-.251-1-.647-.877-1.324-.344-3.694,2.907-7.414,5.78-11.124,8.666q-5.52,4.293-11.043,8.584c-.255.2-.5.586-.876.4s-.2-.612-.255-.937c-.286-1.572.375-2.559,1.65-3.53,6.9-5.257,13.708-10.634,20.579-15.93a1.551,1.551,0,0,0,.611-2.131,25.464,25.464,0,0,1-.926-2.709c-.229-.763-.476-.676-.948-.158-1.982,2.174-3.956,4.357-6.007,6.466-4.373,4.5-9.047,8.672-13.843,12.711-.274.231-.535.679-.955.465-.343-.175-.149-.624-.2-.95-.282-1.647.445-2.715,1.7-3.781a155.117,155.117,0,0,0,18.235-18.04,1.531,1.531,0,0,0,.332-1.668q-2.584-7.473-5.11-14.966c-.254-.755-.62-.933-1.354-.71-.894.272-1.376.154-1.2-1.049.276-1.844.236-1.894,2.774-2.19,1.317-.154,1.684.742,2.024,1.736,3.544,10.375,7.11,20.742,10.627,31.125.333.983.745,1.1,1.667.8a20.3,20.3,0,0,1,26.36,15.471c.06.3.14.592.21.888Zm-3.667-2.756a15.847,15.847,0,0,0-5.976-12.845,16.156,16.156,0,0,0-15.947-2.915c-.513.163-1.057.308-.774,1.094,1.021,2.834,1.776,5.769,3.386,8.371a47.7,47.7,0,0,0,3.7,5.1c.78.953.593,1.99-.357,2.386-.867.362-1.43-.1-1.974-.721a33.874,33.874,0,0,1-7.123-13.2c-.38-1.325-.467-1.335-1.562-.456a16.079,16.079,0,0,0-6.233,15.824,16.507,16.507,0,0,0,18,13.8A16.513,16.513,0,0,0-419.512,508.009Z" transform="translate(533.36 -413.142)" fill="#fff"/>
          <path id="Path_20" data-name="Path 20" d="M-606.616,410.9c.278-5.375.33-10.766,1.35-16.078A12.377,12.377,0,0,1-603.781,391a32.779,32.779,0,0,0,4.358-11.024,25.117,25.117,0,0,0,.014-7.084c-.506-4.061,1.857-8.419,5.325-9.6a6.8,6.8,0,0,1,5.641.573,1.17,1.17,0,0,1,.749,1.057,8.871,8.871,0,0,0,2.845,6.3,5.2,5.2,0,0,1,1.056,5.938c-.134.349-.267.807-.679.858-.488.06-.539-.47-.7-.784-1.213-2.427-2.377-4.879-3.614-7.293a3.443,3.443,0,0,0-3.45-2.02,3.519,3.519,0,0,0-3.207,2.233,3.811,3.811,0,0,0,.2,3.315c1.934,3.946,3.82,7.915,5.778,11.849a3.164,3.164,0,0,1,.28,2.621,4.468,4.468,0,0,0,1.112,5.018c4.179,4.562,8.1,9.359,12.124,14.066,1.045,1.223,1.03,1.283-.467,1.945a66.707,66.707,0,0,1-18.1,4.818c-3.523.483-7.064.708-10.611.853-1.444.059-1.5-.035-1.5-1.446,0-.267,0-.535,0-.8Q-606.616,411.647-606.616,410.9Z" transform="translate(636.906 -342.228)" fill="#fff"/>
          <path id="Path_21" data-name="Path 21" d="M-687.8,591.645c0,1.261-.031,2.523.011,3.782.027.835-.224,1.127-1.125,1.072-2.743-.168-5.493-.207-8.239-.344a1.225,1.225,0,0,0-1.454,1.05,20.336,20.336,0,0,1-20.607,14.789c-9.262-.348-17.675-7.846-18.947-16.994-1.143-8.214,1.636-14.864,8.274-19.844.815-.611.957-1.085.5-1.97-.679-1.323-1.243-2.706-1.83-4.075-1.238-2.888.566-5.6,3.7-5.361,4.145.314,8.276.811,12.412,1.236,1.669.171,3.337.358,5.005.538.471.051.988.092.888.758s-.656.518-1.091.479c-1.444-.128-2.889-.252-4.326-.438-.673-.087-1.008.1-1.066.792-.1,1.14-.21,2.279-.334,3.416-.072.664.194.946.867,1.05a20.071,20.071,0,0,1,8.547,3.4c.478.334.716.211,1.008-.215.906-1.323,1.864-2.612,2.75-3.948.308-.464.643-.888,1.169-.575.548.326.142.852-.08,1.189-.839,1.276-1.707,2.535-2.624,3.755-.49.652-.57,1.06.12,1.7a19.306,19.306,0,0,1,5.452,8.612c.214.7.544.832,1.237.794,2.783-.152,5.571-.2,8.354-.34.85-.041,1.3.205,1.289,1.116-.018,1.526-.005,3.053-.005,4.58Zm-46.888.066a23.794,23.794,0,0,0,.169,2.544,16.531,16.531,0,0,0,22.434,12.83,16.167,16.167,0,0,0,9.621-9.992c.287-.786.251-1.218-.757-1.2-.912.015-1.826-.12-2.741-.159-4.08-.174-8.162-.308-12.241-.515-2.911-.147-4.5-2.138-4.033-5.028a2.761,2.761,0,0,0-.323-1.642c-1.411-3.175-2.857-6.335-4.225-9.528-.4-.924-.745-1.072-1.545-.417A16.393,16.393,0,0,0-734.692,591.711Zm7.1-26.718c-2.2-.044-3.308,1.52-2.47,3.569.622,1.52,1.342,3,1.979,4.514.238.566.516.644,1.047.37a20.268,20.268,0,0,1,8.725-2.113c.732-.025,1-.3,1.031-1.024a23.072,23.072,0,0,1,.32-3.188c.142-.773-.141-1.085-.832-1.155Q-722.687,565.472-727.587,564.993Zm11.775,22.125c1.034.266,1.693-.411,2.328-1.34,1.51-2.207,3.087-4.369,4.677-6.52.477-.646.421-1.02-.261-1.46a16.923,16.923,0,0,0-5.688-2.343c-1.587-.339-1.8-.166-1.948,1.4q-.4,4.274-.867,8.541C-717.755,587.043-717.687,587.152-715.813,587.118ZM-718,577.21c.159-2.241.085-2.292-1.712-2.055a18.707,18.707,0,0,0-5.6,1.56c-.6.281-.915.583-.58,1.318,1.472,3.231,2.9,6.482,4.352,9.722.075.168.169.382.314.452.336.163,2.263-1.264,2.305-1.689C-718.593,583.255-718.272,579.991-718,577.21Zm5.2,9.753c3.4-.134,6.44-.249,9.483-.38.521-.023.921-.213.655-.86a16.547,16.547,0,0,0-4.146-6.1c-.268-.243-.509-.322-.757.025C-709.242,581.994-710.923,584.341-712.8,586.963Zm-3.7,4.354a1.905,1.905,0,0,0-1.765-2.014,1.931,1.931,0,0,0-2.1,1.793,1.888,1.888,0,0,0,1.766,2A1.878,1.878,0,0,0-716.5,591.317Z" transform="translate(738.415 -496.894)" fill="#fff"/>
          <path id="Path_22" data-name="Path 22" d="M-511.307,596.777c0,1.681.021,3.363-.005,5.044a4.494,4.494,0,0,1-4.492,4.545,4.592,4.592,0,0,1-4.806-4.37c-.1-1.906-.149-3.815-.181-5.724q-.164-9.911-.282-19.824a2.151,2.151,0,0,0-.879-1.864c-.553-.419-.62-.745.193-.932a55.1,55.1,0,0,0,8.317-2.542c.808-.326,1.246-.083,1.422.719a7.692,7.692,0,0,1,.227,1.464c.1,4.583.207,9.165.237,13.748C-511.534,590.288-511.224,593.527-511.307,596.777Z" transform="translate(572.017 -502.465)" fill="#fff"/>
          <path id="Path_23" data-name="Path 23" d="M-547.374,272.875a9.51,9.51,0,0,1,9.5,9.464,9.623,9.623,0,0,1-9.423,9.47,9.455,9.455,0,0,1-9.479-9.563A9.372,9.372,0,0,1-547.374,272.875Z" transform="translate(598.516 -272.875)" fill="#fff"/>
          <path id="Path_24" data-name="Path 24" d="M-527.476,407.94a2.855,2.855,0,0,1-1.73-.526,4.766,4.766,0,0,0-3.608-.568q-6.07.79-12.146,1.528a3.135,3.135,0,0,1-3.619-1.979q-3.429-6.994-6.809-14.012c-.858-1.785-.349-3.479,1.189-4.222,1.588-.767,3.169-.162,4.058,1.631q2.824,5.7,5.576,11.428a1.332,1.332,0,0,0,1.639.942c3.7-.529,7.424-.878,11.124-1.407,2.512-.36,4.448.82,6.316,2.144a2.71,2.71,0,0,1,.711,3.237A2.979,2.979,0,0,1-527.476,407.94Z" transform="translate(597.769 -361.416)" fill="#fff"/>
          <path id="Path_25" data-name="Path 25" d="M-616.428,309.405c.365.956-.179,1.641-.989,2.368-1.239,1.111-1.834,2.7-2.655,4.12a23.521,23.521,0,0,1-2.79,4.184,7.354,7.354,0,0,1-8.172,1.882,4.253,4.253,0,0,1-2-1.649c-.136-.224-.3-.48-.069-.732.186-.2.429-.111.64-.03,2.012.782,3.45-.089,4.706-1.585a21.455,21.455,0,0,0,2.643-4.54,13.969,13.969,0,0,1,2.882-4.1,7.788,7.788,0,0,1,4.253-2.077c1.33-.209,1.542-.029,1.552,1.309C-616.427,308.784-616.428,309.013-616.428,309.405Z" transform="translate(657.394 -299.291)" fill="#fff"/>
          <path id="Path_26" data-name="Path 26" d="M-352.227,529.661a7.465,7.465,0,0,1-.639,3.559,1.767,1.767,0,0,1-2.149,1.058,4.881,4.881,0,0,1-3.98-4.656,4.9,4.9,0,0,1,4.021-4.742,1.736,1.736,0,0,1,2.072,1A7.528,7.528,0,0,1-352.227,529.661Z" transform="translate(446.189 -466.931)" fill="#fff"/>
          <path id="Path_27" data-name="Path 27" d="M-537.82,600.728a2.587,2.587,0,0,1-.807-1.481q-2.174-5.957-4.314-11.925c-.169-.473-.667-1.067.249-1.4,1.361-.491,2.113-.382,2.437.481a54.4,54.4,0,0,1,2.28,6.458C-537.371,595.422-537.8,598.083-537.82,600.728Z" transform="translate(588.084 -513.759)" fill="#fff"/>
        </g>
      </g>
      <g id="eum36n" transform="translate(0 0)">
        <g id="Group_18" data-name="Group 18" transform="translate(0 0)">
          <path id="Path_28" data-name="Path 28" d="M-960.45,572.489a5.9,5.9,0,0,1,2.947-3.565c5.246-3.187,10.449-6.446,15.67-9.676q4.58-2.833,9.167-5.656c.873-.538,1-.848.671-1.819q-2.3-6.75-4.6-13.5a1.047,1.047,0,0,1,.025-1.027.86.86,0,0,1,.947-.347c.452.094.9.19,1.36.252.328.044.447.267.574.518q2.6,5.152,5.209,10.3.857,1.693,1.725,3.38a1.245,1.245,0,0,1,.143.929c-.636,2.572-1.278,5.143-1.863,7.727a3.435,3.435,0,0,1-1.7,2.306c-5.068,3.086-10.114,6.207-15.168,9.315-2.87,1.765-5.731,3.543-8.612,5.289a4.3,4.3,0,0,1-6.418-2.543c-.023-.082-.052-.162-.078-.244Z" transform="translate(960.45 -469.817)" fill="#fff"/>
          <path id="Path_29" data-name="Path 29" d="M-765.166,245.072a12.817,12.817,0,0,1,4.17,1.507,10.889,10.889,0,0,1,2.891,16.172,10.475,10.475,0,0,1-9.13,4.094,10.9,10.9,0,0,1-10.3-10.293,10.979,10.979,0,0,1,9.147-11.394c.117-.019.231-.057.346-.086Z" transform="translate(819.582 -245.072)" fill="#fff"/>
          <path id="Path_30" data-name="Path 30" d="M-860.094,358.783q0-5.673,0-11.345a3.163,3.163,0,0,0-.042-.612,1,1,0,0,0-1.039-.868,1.054,1.054,0,0,0-.989.946,5.224,5.224,0,0,0-.016.666q0,10.421.006,20.842a2.332,2.332,0,0,1-.318,1.214c-.927,1.618-1.831,3.249-2.748,4.872a8.781,8.781,0,0,1-.87,1.269,1.131,1.131,0,0,0-.117,1.338c2.5,4.871,4.965,9.756,7.491,14.612a10.038,10.038,0,0,1,.815,7.258c-2.181,9.132-4.308,18.276-6.457,27.415-.571,2.43-1.13,4.864-1.722,7.289a4.4,4.4,0,0,1-4.552,3.453,4.4,4.4,0,0,1-4.159-3.551,5.058,5.058,0,0,1,.106-2.285q2.758-11.421,5.51-22.842c.925-3.841,1.84-7.684,2.772-11.523a1.752,1.752,0,0,0-.149-1.283q-2.811-5.507-5.6-11.026c-.657-1.3-1.319-2.592-1.955-3.9a1.29,1.29,0,0,0-1.132-.82,10.315,10.315,0,0,1-5.584-2.112,10.386,10.386,0,0,1-4.084-7.042,10.719,10.719,0,0,1,1.507-6.981c1.809-3.142,3.551-6.322,5.327-9.484,2.5-4.459,5.025-8.909,7.514-13.377a10.664,10.664,0,0,1,6.275-5.2,10.563,10.563,0,0,1,13.517,8.43,10.609,10.609,0,0,1-1.62,7.5,5.546,5.546,0,0,0-.878,3.233c.06,3.815.022,7.631.024,11.447,0,.912.2,1.165,1.088,1.405q9.361,2.531,18.721,5.067a3.455,3.455,0,0,1,2.554,3.818,3.452,3.452,0,0,1-3.563,2.9,9.4,9.4,0,0,1-1.9-.428q-10.477-2.823-20.952-5.658a3.529,3.529,0,0,1-2.695-2.544,3.264,3.264,0,0,1-.081-.916q0-5.6,0-11.191Z" transform="translate(902.357 -314.512)" fill="#fff"/>
        </g>
      </g>
    </g>
    <g id="Ellipse_2" data-name="Ellipse 2" transform="translate(0 -0.225)" fill="none" stroke="#fff" stroke-width="10">
      <circle cx="112.5" cy="112.5" r="112.5" stroke="none"/>
      <circle cx="112.5" cy="112.5" r="107.5" fill="none"/>
    </g>
  </g>
</svg>
