<svg xmlns="http://www.w3.org/2000/svg" width="90.086" height="96.66" viewBox="0 0 90.086 96.66">
  <g id="If6KBk" transform="translate(0)">
    <g id="Group_15" data-name="Group 15" transform="translate(0 0)">
      <path id="Path_9" data-name="Path 9" d="M-682.513,329.738a40.7,40.7,0,0,1-20.021-5.727c-7.919-4.447-14.553-10.464-20.656-17.1a113.228,113.228,0,0,1-14.194-18.636c-3.677-6.177-6.612-12.664-7.726-19.823-1.721-11.064.829-20.828,9.163-28.689,1.833-1.728,3.786-3.337,5.762-4.9,3.056-2.418,5.9-2.368,8.938.1a13.632,13.632,0,0,1,2.152,2.12,69.562,69.562,0,0,1,8.01,12.678,14.859,14.859,0,0,1,1.373,4.646,8.817,8.817,0,0,1-2.757,7.752,41.4,41.4,0,0,1-5.446,4.6c-1.853,1.256-3.516,2.694-3.947,5.053a10.3,10.3,0,0,0,.432,5.116,31.194,31.194,0,0,0,4.857,8.88c4.427,5.945,9.206,11.574,15.3,15.911a13.309,13.309,0,0,0,6.917,2.817,6.685,6.685,0,0,0,5.46-2.113c1.753-1.821,3.633-3.5,5.531-5.161,3.363-2.947,7.04-3.348,11.042-1.533a20.578,20.578,0,0,1,4.59,2.833c3.366,2.768,6.843,5.418,9.68,8.77.14.165.277.333.407.505,3.074,4.08,2.829,7.312-1,10.7-2.586,2.288-4.988,4.8-7.961,6.636A30.246,30.246,0,0,1-682.513,329.738Z" transform="translate(745.618 -233.078)" fill="#66c8cd"/>
    </g>
  </g>
</svg>
