<svg xmlns="http://www.w3.org/2000/svg" width="39.641" height="42.32" viewBox="0 0 39.641 42.32">
  <g id="Group_5" data-name="Group 5" transform="translate(0)">
    <g id="Group_1" data-name="Group 1" transform="translate(0 0.108)">
      <path id="Path_1" data-name="Path 1" d="M457.428,300.084a1.666,1.666,0,0,1-1.581-1.526,6.412,6.412,0,0,1-.117-1.2q.007-18.422.007-36.846a2.811,2.811,0,0,1,.741-2.22,1.091,1.091,0,0,1,.936-.4l16.178,16.183q2.406,2.406,4.8,4.821-7.264,7.331-14.527,14.666Q460.641,296.821,457.428,300.084Z" transform="translate(-455.73 -257.883)" fill="#3bcbfe"/>
    </g>
    <g id="Group_2" data-name="Group 2" transform="translate(1.684)">
      <path id="Path_2" data-name="Path 2" d="M477.424,278.961q-2.4-2.413-4.8-4.821l-16.178-16.183a1.618,1.618,0,0,1,1.54.228c1.893,1.009,3.772,2.044,5.654,3.069q9.909,5.4,19.817,10.8c.172.094.383.137.484.334q-1.944,1.961-3.888,3.923c-.87.882-1.731,1.771-2.594,2.655Z" transform="translate(-456.446 -257.838)" fill="#49fe48"/>
    </g>
    <g id="Group_3" data-name="Group 3" transform="translate(1.698 21.123)">
      <path id="Path_3" data-name="Path 3" d="M477.416,266.819l.035.007,6.5,6.526c-1,.677-2.086,1.2-3.14,1.778q-11.232,6.167-22.474,12.307a3.2,3.2,0,0,1-1.888.567q3.217-3.26,6.437-6.519Q470.149,274.147,477.416,266.819Z" transform="translate(-456.452 -266.819)" fill="#fe3434"/>
    </g>
    <g id="Group_4" data-name="Group 4" transform="translate(22.698 14.552)">
      <path id="Path_4" data-name="Path 4" d="M471.884,277.129q-3.253-3.263-6.5-6.526c.863-.884,1.724-1.773,2.594-2.655q1.94-1.965,3.888-3.923a10.692,10.692,0,0,1,1.952,1c2.4,1.293,4.788,2.613,7.182,3.923l.132.073c1.557.875,1.611,2.192.059,3.065-3.017,1.7-6.07,3.34-9.109,5A.738.738,0,0,1,471.884,277.129Z" transform="translate(-465.381 -264.025)" fill="#fed301"/>
    </g>
  </g>
</svg>
