<svg xmlns="http://www.w3.org/2000/svg" width="225" height="225" viewBox="0 0 225 225">
  <g id="Group_20" data-name="Group 20" transform="translate(0.273 0.225)">
    <g id="R7cC0h" transform="translate(43.443 43.101)">
      <g id="Group_16" data-name="Group 16" transform="translate(0 0)">
        <path id="Path_10" data-name="Path 10" d="M-404.354,522.143a24.926,24.926,0,0,1-5.417,12.066c-6.75,7.76-15.242,10.741-25.177,8.078-9.8-2.627-15.973-9.286-17.721-19.3-1.775-10.164,1.9-18.439,10.318-24.476,1.069-.767,1.369-1.434.84-2.6a15.58,15.58,0,0,1-.9-2.607c-.3-1.2-.779-1.056-1.595-.414-4.447,3.5-8.926,6.959-13.394,10.434q-6.646,5.169-13.3,10.335c-.307.237-.6.706-1.055.48s-.236-.737-.307-1.128c-.345-1.893.452-3.081,1.986-4.25,8.308-6.329,16.5-12.8,24.777-19.18a1.867,1.867,0,0,0,.736-2.565,30.674,30.674,0,0,1-1.115-3.262c-.276-.919-.573-.813-1.141-.191-2.386,2.618-4.763,5.246-7.232,7.785-5.265,5.415-10.892,10.441-16.667,15.3-.33.278-.645.817-1.149.56-.413-.211-.179-.751-.246-1.144-.339-1.983.536-3.269,2.048-4.553A186.762,186.762,0,0,0-448.1,479.8a1.843,1.843,0,0,0,.4-2.008q-3.111-9-6.152-18.019c-.306-.909-.747-1.124-1.631-.855-1.076.328-1.656.185-1.44-1.263.332-2.22.284-2.28,3.34-2.636,1.586-.185,2.028.894,2.437,2.09,4.267,12.491,8.561,24.973,12.795,37.475.4,1.183.9,1.319,2.007.962a24.442,24.442,0,0,1,31.737,18.627c.073.359.168.713.253,1.069Zm-4.415-3.318a19.08,19.08,0,0,0-7.2-15.465c-5.708-4.646-12.18-5.74-19.2-3.51-.618.2-1.273.371-.932,1.317,1.229,3.412,2.139,6.946,4.077,10.079a57.438,57.438,0,0,0,4.451,6.138c.939,1.147.714,2.4-.43,2.872-1.044.435-1.722-.122-2.376-.869a40.783,40.783,0,0,1-8.577-15.9c-.457-1.6-.562-1.608-1.88-.549-6.124,4.919-8.683,11.361-7.5,19.053a19.874,19.874,0,0,0,21.675,16.612A19.882,19.882,0,0,0-408.769,518.824Z" transform="translate(545.842 -404.604)" fill="#fff"/>
        <path id="Path_11" data-name="Path 11" d="M-606.616,420.689c.334-6.471.4-12.962,1.625-19.359a14.9,14.9,0,0,1,1.789-4.6c2.383-4.171,4.478-8.467,5.247-13.272a30.232,30.232,0,0,0,.016-8.529c-.609-4.89,2.236-10.137,6.412-11.56a8.192,8.192,0,0,1,6.792.69,1.408,1.408,0,0,1,.9,1.272,10.681,10.681,0,0,0,3.425,7.59,6.261,6.261,0,0,1,1.271,7.149c-.162.42-.322.971-.817,1.033-.587.073-.649-.566-.838-.944-1.46-2.922-2.862-5.874-4.351-8.781a4.145,4.145,0,0,0-4.154-2.432,4.237,4.237,0,0,0-3.861,2.689,4.588,4.588,0,0,0,.243,3.992c2.329,4.751,4.6,9.53,6.956,14.267a3.81,3.81,0,0,1,.337,3.155,5.379,5.379,0,0,0,1.339,6.041c5.032,5.493,9.756,11.268,14.6,16.935,1.258,1.473,1.24,1.545-.562,2.342a80.316,80.316,0,0,1-21.787,5.8c-4.242.581-8.5.853-12.776,1.027-1.738.071-1.8-.043-1.81-1.74,0-.322,0-.644,0-.966Q-606.615,421.587-606.616,420.689Z" transform="translate(643.085 -338.006)" fill="#fff"/>
        <path id="Path_12" data-name="Path 12" d="M-677.479,597.338c0,1.518-.037,3.037.013,4.553.033,1-.269,1.356-1.355,1.29-3.3-.2-6.614-.249-9.919-.414a1.474,1.474,0,0,0-1.751,1.264,24.484,24.484,0,0,1-24.81,17.807c-11.151-.419-21.28-9.447-22.812-20.461-1.376-9.889,1.969-17.9,9.962-23.892.981-.736,1.152-1.307.606-2.372-.817-1.593-1.5-3.258-2.2-4.906-1.49-3.477.681-6.741,4.454-6.455,4.99.378,9.964.977,14.945,1.488,2.01.206,4.018.431,6.026.648.567.061,1.189.111,1.07.912s-.79.624-1.313.577c-1.738-.155-3.478-.3-5.208-.527-.811-.1-1.213.123-1.283.954-.116,1.373-.253,2.744-.4,4.113-.087.8.234,1.139,1.043,1.264a24.162,24.162,0,0,1,10.291,4.089c.575.4.862.254,1.213-.259,1.09-1.593,2.244-3.145,3.311-4.753.371-.559.775-1.069,1.407-.693.66.392.17,1.025-.1,1.431-1.01,1.536-2.055,3.052-3.159,4.522-.59.785-.686,1.276.144,2.043a23.245,23.245,0,0,1,6.564,10.368c.257.837.655,1,1.489.957,3.35-.183,6.707-.247,10.059-.409,1.024-.049,1.566.247,1.553,1.344-.022,1.838-.006,3.676-.006,5.515Zm-56.454.08a28.57,28.57,0,0,0,.2,3.062,19.9,19.9,0,0,0,27.011,15.448,19.465,19.465,0,0,0,11.583-12.03c.346-.946.3-1.466-.912-1.446-1.1.018-2.2-.145-3.3-.192-4.913-.209-9.828-.371-14.738-.62-3.5-.177-5.413-2.575-4.855-6.053a3.324,3.324,0,0,0-.389-1.977c-1.7-3.823-3.44-7.628-5.087-11.472-.477-1.113-.9-1.29-1.86-.5A19.738,19.738,0,0,0-733.932,597.418Zm8.554-32.168c-2.653-.053-3.983,1.83-2.974,4.3.749,1.83,1.615,3.612,2.383,5.434.286.681.621.776,1.261.445a24.4,24.4,0,0,1,10.5-2.544c.882-.03,1.2-.362,1.241-1.234a27.8,27.8,0,0,1,.385-3.838c.171-.93-.17-1.307-1-1.391Q-719.479,565.826-725.379,565.25Zm14.177,26.639c1.245.32,2.038-.5,2.8-1.614,1.818-2.657,3.717-5.26,5.631-7.85.575-.778.507-1.228-.315-1.758a20.375,20.375,0,0,0-6.848-2.821c-1.91-.408-2.17-.2-2.346,1.69q-.478,5.146-1.043,10.283C-713.54,591.8-713.459,591.929-711.2,591.889Zm-2.63-11.93c.191-2.7.1-2.759-2.061-2.474a22.526,22.526,0,0,0-6.744,1.878c-.718.339-1.1.7-.7,1.587,1.772,3.89,3.493,7.8,5.239,11.706.09.2.2.46.378.544.4.2,2.725-1.521,2.776-2.033C-714.549,587.237-714.163,583.307-713.832,579.958Zm6.259,11.743c4.09-.162,7.754-.3,11.417-.458.627-.027,1.109-.256.789-1.036a19.926,19.926,0,0,0-4.992-7.347c-.322-.293-.613-.388-.911.03C-703.29,585.719-705.314,588.545-707.573,591.7Zm-4.453,5.243a2.294,2.294,0,0,0-2.125-2.425,2.325,2.325,0,0,0-2.528,2.159,2.273,2.273,0,0,0,2.126,2.413A2.261,2.261,0,0,0-712.026,596.944Z" transform="translate(738.415 -483.258)" fill="#fff"/>
        <path id="Path_13" data-name="Path 13" d="M-509.05,602.042c0,2.024.025,4.049-.006,6.073a5.411,5.411,0,0,1-5.409,5.472,5.529,5.529,0,0,1-5.786-5.262c-.122-2.295-.18-4.594-.217-6.892q-.2-11.933-.34-23.868a2.589,2.589,0,0,0-1.058-2.245c-.666-.5-.746-.9.232-1.123a66.328,66.328,0,0,0,10.014-3.06c.973-.393,1.5-.1,1.712.865a9.258,9.258,0,0,1,.274,1.763c.115,5.517.249,11.035.286,16.553C-509.323,594.229-508.95,598.13-509.05,602.042Z" transform="translate(582.146 -488.489)" fill="#fff"/>
        <path id="Path_14" data-name="Path 14" d="M-545.457,272.875a11.45,11.45,0,0,1,11.443,11.4,11.587,11.587,0,0,1-11.346,11.4,11.384,11.384,0,0,1-11.413-11.514A11.284,11.284,0,0,1-545.457,272.875Z" transform="translate(607.031 -272.875)" fill="#fff"/>
        <path id="Path_15" data-name="Path 15" d="M-521.7,412.042a3.437,3.437,0,0,1-2.083-.634,5.738,5.738,0,0,0-4.345-.684q-7.308.951-14.624,1.84a3.774,3.774,0,0,1-4.357-2.383q-4.129-8.421-8.2-16.871c-1.033-2.149-.42-4.189,1.431-5.083,1.912-.923,3.816-.2,4.886,1.964q3.4,6.859,6.713,13.759a1.6,1.6,0,0,0,1.974,1.134c4.454-.637,8.939-1.057,13.393-1.694,3.024-.433,5.355.987,7.6,2.582a3.262,3.262,0,0,1,.856,3.9A3.587,3.587,0,0,1-521.7,412.042Z" transform="translate(606.33 -356.027)" fill="#fff"/>
        <path id="Path_16" data-name="Path 16" d="M-613,309.861c.439,1.15-.215,1.976-1.191,2.851-1.492,1.338-2.208,3.254-3.2,4.96a28.311,28.311,0,0,1-3.359,5.037,8.855,8.855,0,0,1-9.839,2.266A5.122,5.122,0,0,1-633,322.989c-.163-.27-.359-.578-.083-.882.224-.247.517-.134.771-.036,2.423.942,4.153-.108,5.667-1.908a25.833,25.833,0,0,0,3.182-5.467,16.821,16.821,0,0,1,3.47-4.935,9.377,9.377,0,0,1,5.12-2.5c1.6-.252,1.857-.035,1.869,1.576C-613,309.113-613,309.389-613,309.861Z" transform="translate(662.326 -297.683)" fill="#fff"/>
        <path id="Path_17" data-name="Path 17" d="M-350.846,530.646a8.989,8.989,0,0,1-.769,4.285,2.128,2.128,0,0,1-2.588,1.274A5.877,5.877,0,0,1-359,530.6a5.9,5.9,0,0,1,4.842-5.71,2.09,2.09,0,0,1,2.495,1.206A9.064,9.064,0,0,1-350.846,530.646Z" transform="translate(463.977 -455.119)" fill="#fff"/>
        <path id="Path_18" data-name="Path 18" d="M-536.717,603.807a3.115,3.115,0,0,1-.971-1.783q-2.618-7.172-5.195-14.358c-.2-.569-.8-1.285.3-1.682,1.639-.591,2.544-.46,2.934.58a65.5,65.5,0,0,1,2.745,7.776C-536.176,597.419-536.692,600.623-536.717,603.807Z" transform="translate(597.234 -499.096)" fill="#fff"/>
      </g>
    </g>
    <g id="Ellipse_3" data-name="Ellipse 3" transform="translate(-0.273 -0.225)" fill="none" stroke="#fff" stroke-width="10">
      <circle cx="112.5" cy="112.5" r="112.5" stroke="none"/>
      <circle cx="112.5" cy="112.5" r="107.5" fill="none"/>
    </g>
  </g>
</svg>
